<mxfile host="app.diagrams.net" modified="2020-10-17T00:24:18.497Z" agent="5.0 (Windows NT 6.1; Win64; x64) AppleWebKit/537.36 (KHTML, like Gecko) Chrome/84.0.4147.125 Safari/537.36" etag="21jIh94x04wEIEVmsRaX" version="13.8.0" type="github">
  <diagram id="wiwnz_nJjrAiyN_C9EXH" name="Page-1">
    <mxGraphModel dx="2903" dy="2345" grid="1" gridSize="10" guides="1" tooltips="1" connect="1" arrows="1" fold="1" page="1" pageScale="1" pageWidth="827" pageHeight="1169" math="0" shadow="0">
      <root>
        <mxCell id="0" />
        <mxCell id="1" parent="0" />
        <mxCell id="aLbbkwY_9u7VukXcp3Ax-1" value="&lt;br&gt;" style="whiteSpace=wrap;html=1;shape=mxgraph.basic.isocube;isoAngle=15;" vertex="1" parent="1">
          <mxGeometry x="-230" y="140" width="130" height="160" as="geometry" />
        </mxCell>
        <mxCell id="aLbbkwY_9u7VukXcp3Ax-2" value="" style="whiteSpace=wrap;html=1;shape=mxgraph.basic.isocube;isoAngle=15;" vertex="1" parent="1">
          <mxGeometry x="590" y="-240" width="100" height="120" as="geometry" />
        </mxCell>
        <mxCell id="aLbbkwY_9u7VukXcp3Ax-3" value="GameStateContext" style="text;html=1;strokeColor=none;fillColor=none;align=center;verticalAlign=middle;whiteSpace=wrap;rounded=0;" vertex="1" parent="1">
          <mxGeometry x="-185" y="300" width="40" height="20" as="geometry" />
        </mxCell>
        <mxCell id="aLbbkwY_9u7VukXcp3Ax-4" value="DataLayer" style="text;html=1;strokeColor=none;fillColor=none;align=center;verticalAlign=middle;whiteSpace=wrap;rounded=0;" vertex="1" parent="1">
          <mxGeometry x="620" y="-120" width="40" height="20" as="geometry" />
        </mxCell>
        <mxCell id="aLbbkwY_9u7VukXcp3Ax-5" value="" style="whiteSpace=wrap;html=1;shape=mxgraph.basic.isocube;isoAngle=15;" vertex="1" parent="1">
          <mxGeometry x="590" y="170" width="100" height="120" as="geometry" />
        </mxCell>
        <mxCell id="aLbbkwY_9u7VukXcp3Ax-7" value="Players" style="rounded=0;whiteSpace=wrap;html=1;" vertex="1" parent="1">
          <mxGeometry x="770" y="-340" width="120" height="40" as="geometry" />
        </mxCell>
        <mxCell id="aLbbkwY_9u7VukXcp3Ax-8" value="Enemies" style="rounded=0;whiteSpace=wrap;html=1;" vertex="1" parent="1">
          <mxGeometry x="770" y="-290" width="120" height="40" as="geometry" />
        </mxCell>
        <mxCell id="aLbbkwY_9u7VukXcp3Ax-9" value="Items" style="rounded=0;whiteSpace=wrap;html=1;" vertex="1" parent="1">
          <mxGeometry x="770" y="-240" width="120" height="40" as="geometry" />
        </mxCell>
        <mxCell id="aLbbkwY_9u7VukXcp3Ax-10" value="Projectiles" style="rounded=0;whiteSpace=wrap;html=1;" vertex="1" parent="1">
          <mxGeometry x="770" y="-190" width="120" height="40" as="geometry" />
        </mxCell>
        <mxCell id="aLbbkwY_9u7VukXcp3Ax-11" value="General" style="rounded=0;whiteSpace=wrap;html=1;" vertex="1" parent="1">
          <mxGeometry x="770" y="-140" width="120" height="40" as="geometry" />
        </mxCell>
        <mxCell id="aLbbkwY_9u7VukXcp3Ax-12" value="Misc ( ImageData )" style="rounded=0;whiteSpace=wrap;html=1;" vertex="1" parent="1">
          <mxGeometry x="770" y="-90" width="120" height="40" as="geometry" />
        </mxCell>
        <mxCell id="aLbbkwY_9u7VukXcp3Ax-13" value="" style="endArrow=classic;html=1;entryX=0;entryY=0.5;entryDx=0;entryDy=0;" edge="1" parent="1" target="aLbbkwY_9u7VukXcp3Ax-7">
          <mxGeometry width="50" height="50" relative="1" as="geometry">
            <mxPoint x="690" y="-220" as="sourcePoint" />
            <mxPoint x="740" y="-270" as="targetPoint" />
          </mxGeometry>
        </mxCell>
        <mxCell id="aLbbkwY_9u7VukXcp3Ax-14" value="" style="endArrow=classic;html=1;entryX=0;entryY=0.5;entryDx=0;entryDy=0;exitX=0.996;exitY=0.377;exitDx=0;exitDy=0;exitPerimeter=0;" edge="1" parent="1" source="aLbbkwY_9u7VukXcp3Ax-2" target="aLbbkwY_9u7VukXcp3Ax-8">
          <mxGeometry width="50" height="50" relative="1" as="geometry">
            <mxPoint x="700" y="-210" as="sourcePoint" />
            <mxPoint x="780" y="-310" as="targetPoint" />
          </mxGeometry>
        </mxCell>
        <mxCell id="aLbbkwY_9u7VukXcp3Ax-15" value="" style="endArrow=classic;html=1;entryX=0;entryY=0.5;entryDx=0;entryDy=0;entryPerimeter=0;exitX=1;exitY=0.5;exitDx=0;exitDy=0;exitPerimeter=0;" edge="1" parent="1" source="aLbbkwY_9u7VukXcp3Ax-2" target="aLbbkwY_9u7VukXcp3Ax-9">
          <mxGeometry width="50" height="50" relative="1" as="geometry">
            <mxPoint x="710" y="-200" as="sourcePoint" />
            <mxPoint x="790" y="-300" as="targetPoint" />
          </mxGeometry>
        </mxCell>
        <mxCell id="aLbbkwY_9u7VukXcp3Ax-16" value="" style="endArrow=classic;html=1;entryX=0;entryY=0.5;entryDx=0;entryDy=0;exitX=1;exitY=0.5;exitDx=0;exitDy=0;exitPerimeter=0;" edge="1" parent="1" target="aLbbkwY_9u7VukXcp3Ax-10">
          <mxGeometry width="50" height="50" relative="1" as="geometry">
            <mxPoint x="690" y="-160" as="sourcePoint" />
            <mxPoint x="770" y="-200" as="targetPoint" />
          </mxGeometry>
        </mxCell>
        <mxCell id="aLbbkwY_9u7VukXcp3Ax-17" value="" style="endArrow=classic;html=1;entryX=0;entryY=0.5;entryDx=0;entryDy=0;exitX=0;exitY=0;exitDx=100;exitDy=95.9921240919884;exitPerimeter=0;" edge="1" parent="1" source="aLbbkwY_9u7VukXcp3Ax-2" target="aLbbkwY_9u7VukXcp3Ax-11">
          <mxGeometry width="50" height="50" relative="1" as="geometry">
            <mxPoint x="700" y="-150" as="sourcePoint" />
            <mxPoint x="780" y="-160" as="targetPoint" />
          </mxGeometry>
        </mxCell>
        <mxCell id="aLbbkwY_9u7VukXcp3Ax-18" value="" style="endArrow=classic;html=1;entryX=0;entryY=0.5;entryDx=0;entryDy=0;exitX=0;exitY=0;exitDx=100;exitDy=95.9921240919884;exitPerimeter=0;" edge="1" parent="1" target="aLbbkwY_9u7VukXcp3Ax-12">
          <mxGeometry width="50" height="50" relative="1" as="geometry">
            <mxPoint x="664" y="-132.00787590801156" as="sourcePoint" />
            <mxPoint x="744" y="-108" as="targetPoint" />
          </mxGeometry>
        </mxCell>
        <mxCell id="aLbbkwY_9u7VukXcp3Ax-19" value="" style="endArrow=classic;html=1;entryX=0;entryY=0.5;entryDx=0;entryDy=0;entryPerimeter=0;exitX=1;exitY=0.5;exitDx=0;exitDy=0;exitPerimeter=0;" edge="1" parent="1" source="aLbbkwY_9u7VukXcp3Ax-1" target="aLbbkwY_9u7VukXcp3Ax-2">
          <mxGeometry width="50" height="50" relative="1" as="geometry">
            <mxPoint x="190" y="160" as="sourcePoint" />
            <mxPoint x="220" y="115" as="targetPoint" />
          </mxGeometry>
        </mxCell>
        <mxCell id="aLbbkwY_9u7VukXcp3Ax-21" value="PlayerMechanics" style="rounded=0;whiteSpace=wrap;html=1;" vertex="1" parent="1">
          <mxGeometry x="770" y="70" width="120" height="40" as="geometry" />
        </mxCell>
        <mxCell id="aLbbkwY_9u7VukXcp3Ax-22" value="EnemyMechanics" style="rounded=0;whiteSpace=wrap;html=1;" vertex="1" parent="1">
          <mxGeometry x="770" y="120" width="120" height="40" as="geometry" />
        </mxCell>
        <mxCell id="aLbbkwY_9u7VukXcp3Ax-23" value="ItemMechanics" style="rounded=0;whiteSpace=wrap;html=1;" vertex="1" parent="1">
          <mxGeometry x="770" y="170" width="120" height="40" as="geometry" />
        </mxCell>
        <mxCell id="aLbbkwY_9u7VukXcp3Ax-24" value="ProjectileMechanics" style="rounded=0;whiteSpace=wrap;html=1;" vertex="1" parent="1">
          <mxGeometry x="770" y="220" width="120" height="40" as="geometry" />
        </mxCell>
        <mxCell id="aLbbkwY_9u7VukXcp3Ax-25" value="GeneralMechanics" style="rounded=0;whiteSpace=wrap;html=1;" vertex="1" parent="1">
          <mxGeometry x="770" y="270" width="120" height="40" as="geometry" />
        </mxCell>
        <mxCell id="aLbbkwY_9u7VukXcp3Ax-26" value="MiscMechanics" style="rounded=0;whiteSpace=wrap;html=1;" vertex="1" parent="1">
          <mxGeometry x="770" y="320" width="120" height="40" as="geometry" />
        </mxCell>
        <mxCell id="aLbbkwY_9u7VukXcp3Ax-27" value="" style="endArrow=classic;html=1;entryX=0;entryY=0.5;entryDx=0;entryDy=0;" edge="1" parent="1" target="aLbbkwY_9u7VukXcp3Ax-21">
          <mxGeometry width="50" height="50" relative="1" as="geometry">
            <mxPoint x="690" y="190" as="sourcePoint" />
            <mxPoint x="740" y="140" as="targetPoint" />
          </mxGeometry>
        </mxCell>
        <mxCell id="aLbbkwY_9u7VukXcp3Ax-28" value="" style="endArrow=classic;html=1;entryX=0;entryY=0.5;entryDx=0;entryDy=0;exitX=0.996;exitY=0.377;exitDx=0;exitDy=0;exitPerimeter=0;" edge="1" parent="1" target="aLbbkwY_9u7VukXcp3Ax-22">
          <mxGeometry width="50" height="50" relative="1" as="geometry">
            <mxPoint x="689.5999999999999" y="215.24" as="sourcePoint" />
            <mxPoint x="780" y="100" as="targetPoint" />
          </mxGeometry>
        </mxCell>
        <mxCell id="aLbbkwY_9u7VukXcp3Ax-29" value="" style="endArrow=classic;html=1;entryX=0;entryY=0.5;entryDx=0;entryDy=0;entryPerimeter=0;exitX=1;exitY=0.5;exitDx=0;exitDy=0;exitPerimeter=0;" edge="1" parent="1" target="aLbbkwY_9u7VukXcp3Ax-23">
          <mxGeometry width="50" height="50" relative="1" as="geometry">
            <mxPoint x="690" y="230" as="sourcePoint" />
            <mxPoint x="790" y="110" as="targetPoint" />
          </mxGeometry>
        </mxCell>
        <mxCell id="aLbbkwY_9u7VukXcp3Ax-30" value="" style="endArrow=classic;html=1;entryX=0;entryY=0.5;entryDx=0;entryDy=0;exitX=1;exitY=0.5;exitDx=0;exitDy=0;exitPerimeter=0;" edge="1" parent="1" target="aLbbkwY_9u7VukXcp3Ax-24">
          <mxGeometry width="50" height="50" relative="1" as="geometry">
            <mxPoint x="690" y="250" as="sourcePoint" />
            <mxPoint x="770" y="210" as="targetPoint" />
          </mxGeometry>
        </mxCell>
        <mxCell id="aLbbkwY_9u7VukXcp3Ax-31" value="" style="endArrow=classic;html=1;entryX=0;entryY=0.5;entryDx=0;entryDy=0;exitX=0;exitY=0;exitDx=100;exitDy=95.9921240919884;exitPerimeter=0;" edge="1" parent="1" target="aLbbkwY_9u7VukXcp3Ax-25">
          <mxGeometry width="50" height="50" relative="1" as="geometry">
            <mxPoint x="690" y="265.99212409198844" as="sourcePoint" />
            <mxPoint x="780" y="250" as="targetPoint" />
          </mxGeometry>
        </mxCell>
        <mxCell id="aLbbkwY_9u7VukXcp3Ax-32" value="" style="endArrow=classic;html=1;entryX=0;entryY=0.5;entryDx=0;entryDy=0;exitX=0;exitY=0;exitDx=100;exitDy=95.9921240919884;exitPerimeter=0;" edge="1" parent="1" target="aLbbkwY_9u7VukXcp3Ax-26">
          <mxGeometry width="50" height="50" relative="1" as="geometry">
            <mxPoint x="664" y="277.99212409198844" as="sourcePoint" />
            <mxPoint x="744" y="302" as="targetPoint" />
          </mxGeometry>
        </mxCell>
        <mxCell id="aLbbkwY_9u7VukXcp3Ax-33" value="" style="whiteSpace=wrap;html=1;shape=mxgraph.basic.isocube;isoAngle=15;" vertex="1" parent="1">
          <mxGeometry x="590" y="930" width="100" height="120" as="geometry" />
        </mxCell>
        <mxCell id="aLbbkwY_9u7VukXcp3Ax-34" value="Factories" style="text;html=1;strokeColor=none;fillColor=none;align=center;verticalAlign=middle;whiteSpace=wrap;rounded=0;" vertex="1" parent="1">
          <mxGeometry x="620" y="1050" width="40" height="20" as="geometry" />
        </mxCell>
        <mxCell id="aLbbkwY_9u7VukXcp3Ax-35" value="" style="endArrow=classic;html=1;entryX=0;entryY=0.5;entryDx=0;entryDy=0;entryPerimeter=0;exitX=0.5;exitY=0;exitDx=0;exitDy=0;" edge="1" parent="1" target="aLbbkwY_9u7VukXcp3Ax-33" source="aLbbkwY_9u7VukXcp3Ax-3">
          <mxGeometry width="50" height="50" relative="1" as="geometry">
            <mxPoint x="143.61000000000013" y="535.0000000000002" as="sourcePoint" />
            <mxPoint x="260" y="755.6800000000001" as="targetPoint" />
          </mxGeometry>
        </mxCell>
        <mxCell id="aLbbkwY_9u7VukXcp3Ax-36" value="PlayerFactories" style="rounded=0;whiteSpace=wrap;html=1;" vertex="1" parent="1">
          <mxGeometry x="770" y="830" width="120" height="40" as="geometry" />
        </mxCell>
        <mxCell id="aLbbkwY_9u7VukXcp3Ax-37" value="EnemyFactories" style="rounded=0;whiteSpace=wrap;html=1;" vertex="1" parent="1">
          <mxGeometry x="770" y="880" width="120" height="40" as="geometry" />
        </mxCell>
        <mxCell id="aLbbkwY_9u7VukXcp3Ax-38" value="ItemFactories" style="rounded=0;whiteSpace=wrap;html=1;" vertex="1" parent="1">
          <mxGeometry x="770" y="930" width="120" height="40" as="geometry" />
        </mxCell>
        <mxCell id="aLbbkwY_9u7VukXcp3Ax-39" value="ProjectileFactories" style="rounded=0;whiteSpace=wrap;html=1;" vertex="1" parent="1">
          <mxGeometry x="770" y="980" width="120" height="40" as="geometry" />
        </mxCell>
        <mxCell id="aLbbkwY_9u7VukXcp3Ax-40" value="GeneralFactories" style="rounded=0;whiteSpace=wrap;html=1;" vertex="1" parent="1">
          <mxGeometry x="770" y="1030" width="120" height="40" as="geometry" />
        </mxCell>
        <mxCell id="aLbbkwY_9u7VukXcp3Ax-41" value="MiscFactories" style="rounded=0;whiteSpace=wrap;html=1;" vertex="1" parent="1">
          <mxGeometry x="770" y="1080" width="120" height="40" as="geometry" />
        </mxCell>
        <mxCell id="aLbbkwY_9u7VukXcp3Ax-42" value="" style="endArrow=classic;html=1;entryX=0;entryY=0.5;entryDx=0;entryDy=0;" edge="1" parent="1" target="aLbbkwY_9u7VukXcp3Ax-36">
          <mxGeometry width="50" height="50" relative="1" as="geometry">
            <mxPoint x="690" y="950" as="sourcePoint" />
            <mxPoint x="740" y="900" as="targetPoint" />
          </mxGeometry>
        </mxCell>
        <mxCell id="aLbbkwY_9u7VukXcp3Ax-43" value="" style="endArrow=classic;html=1;entryX=0;entryY=0.5;entryDx=0;entryDy=0;exitX=0.996;exitY=0.377;exitDx=0;exitDy=0;exitPerimeter=0;" edge="1" parent="1" target="aLbbkwY_9u7VukXcp3Ax-37">
          <mxGeometry width="50" height="50" relative="1" as="geometry">
            <mxPoint x="689.6000000000001" y="975.2399999999998" as="sourcePoint" />
            <mxPoint x="780" y="860" as="targetPoint" />
          </mxGeometry>
        </mxCell>
        <mxCell id="aLbbkwY_9u7VukXcp3Ax-44" value="" style="endArrow=classic;html=1;entryX=0;entryY=0.5;entryDx=0;entryDy=0;entryPerimeter=0;exitX=1;exitY=0.5;exitDx=0;exitDy=0;exitPerimeter=0;" edge="1" parent="1" target="aLbbkwY_9u7VukXcp3Ax-38">
          <mxGeometry width="50" height="50" relative="1" as="geometry">
            <mxPoint x="690" y="990" as="sourcePoint" />
            <mxPoint x="790" y="870" as="targetPoint" />
          </mxGeometry>
        </mxCell>
        <mxCell id="aLbbkwY_9u7VukXcp3Ax-45" value="" style="endArrow=classic;html=1;entryX=0;entryY=0.5;entryDx=0;entryDy=0;exitX=1;exitY=0.5;exitDx=0;exitDy=0;exitPerimeter=0;" edge="1" parent="1" target="aLbbkwY_9u7VukXcp3Ax-39">
          <mxGeometry width="50" height="50" relative="1" as="geometry">
            <mxPoint x="690" y="1010" as="sourcePoint" />
            <mxPoint x="770" y="970" as="targetPoint" />
          </mxGeometry>
        </mxCell>
        <mxCell id="aLbbkwY_9u7VukXcp3Ax-46" value="" style="endArrow=classic;html=1;entryX=0;entryY=0.5;entryDx=0;entryDy=0;exitX=0;exitY=0;exitDx=100;exitDy=95.9921240919884;exitPerimeter=0;" edge="1" parent="1" target="aLbbkwY_9u7VukXcp3Ax-40">
          <mxGeometry width="50" height="50" relative="1" as="geometry">
            <mxPoint x="690" y="1025.9921240919884" as="sourcePoint" />
            <mxPoint x="780" y="1010" as="targetPoint" />
          </mxGeometry>
        </mxCell>
        <mxCell id="aLbbkwY_9u7VukXcp3Ax-47" value="" style="endArrow=classic;html=1;entryX=0;entryY=0.5;entryDx=0;entryDy=0;exitX=0;exitY=0;exitDx=100;exitDy=95.9921240919884;exitPerimeter=0;" edge="1" parent="1" target="aLbbkwY_9u7VukXcp3Ax-41">
          <mxGeometry width="50" height="50" relative="1" as="geometry">
            <mxPoint x="664" y="1037.9921240919884" as="sourcePoint" />
            <mxPoint x="744" y="1062" as="targetPoint" />
          </mxGeometry>
        </mxCell>
        <mxCell id="aLbbkwY_9u7VukXcp3Ax-50" value="Singular Mechanics" style="text;html=1;strokeColor=none;fillColor=none;align=center;verticalAlign=middle;whiteSpace=wrap;rounded=0;" vertex="1" parent="1">
          <mxGeometry x="620" y="300" width="40" height="20" as="geometry" />
        </mxCell>
        <mxCell id="aLbbkwY_9u7VukXcp3Ax-53" value="" style="whiteSpace=wrap;html=1;shape=mxgraph.basic.isocube;isoAngle=15;" vertex="1" parent="1">
          <mxGeometry x="590" y="480" width="100" height="120" as="geometry" />
        </mxCell>
        <mxCell id="aLbbkwY_9u7VukXcp3Ax-56" value="PlayerMechanics" style="rounded=0;whiteSpace=wrap;html=1;" vertex="1" parent="1">
          <mxGeometry x="770" y="380" width="120" height="40" as="geometry" />
        </mxCell>
        <mxCell id="aLbbkwY_9u7VukXcp3Ax-57" value="EnemyMechanics" style="rounded=0;whiteSpace=wrap;html=1;" vertex="1" parent="1">
          <mxGeometry x="770" y="430" width="120" height="40" as="geometry" />
        </mxCell>
        <mxCell id="aLbbkwY_9u7VukXcp3Ax-58" value="ItemMechanics" style="rounded=0;whiteSpace=wrap;html=1;" vertex="1" parent="1">
          <mxGeometry x="770" y="480" width="120" height="40" as="geometry" />
        </mxCell>
        <mxCell id="aLbbkwY_9u7VukXcp3Ax-59" value="ProjectileMechanics" style="rounded=0;whiteSpace=wrap;html=1;" vertex="1" parent="1">
          <mxGeometry x="770" y="530" width="120" height="40" as="geometry" />
        </mxCell>
        <mxCell id="aLbbkwY_9u7VukXcp3Ax-60" value="GeneralMechanics" style="rounded=0;whiteSpace=wrap;html=1;" vertex="1" parent="1">
          <mxGeometry x="770" y="580" width="120" height="40" as="geometry" />
        </mxCell>
        <mxCell id="aLbbkwY_9u7VukXcp3Ax-61" value="MiscMechanics" style="rounded=0;whiteSpace=wrap;html=1;" vertex="1" parent="1">
          <mxGeometry x="770" y="630" width="120" height="40" as="geometry" />
        </mxCell>
        <mxCell id="aLbbkwY_9u7VukXcp3Ax-62" value="" style="endArrow=classic;html=1;entryX=0;entryY=0.5;entryDx=0;entryDy=0;" edge="1" parent="1" target="aLbbkwY_9u7VukXcp3Ax-56">
          <mxGeometry width="50" height="50" relative="1" as="geometry">
            <mxPoint x="690" y="500" as="sourcePoint" />
            <mxPoint x="740" y="450" as="targetPoint" />
          </mxGeometry>
        </mxCell>
        <mxCell id="aLbbkwY_9u7VukXcp3Ax-63" value="" style="endArrow=classic;html=1;entryX=0;entryY=0.5;entryDx=0;entryDy=0;exitX=0.996;exitY=0.377;exitDx=0;exitDy=0;exitPerimeter=0;" edge="1" parent="1" target="aLbbkwY_9u7VukXcp3Ax-57">
          <mxGeometry width="50" height="50" relative="1" as="geometry">
            <mxPoint x="689.5999999999999" y="525.2399999999998" as="sourcePoint" />
            <mxPoint x="780" y="410" as="targetPoint" />
          </mxGeometry>
        </mxCell>
        <mxCell id="aLbbkwY_9u7VukXcp3Ax-64" value="" style="endArrow=classic;html=1;entryX=0;entryY=0.5;entryDx=0;entryDy=0;entryPerimeter=0;exitX=1;exitY=0.5;exitDx=0;exitDy=0;exitPerimeter=0;" edge="1" parent="1" target="aLbbkwY_9u7VukXcp3Ax-58">
          <mxGeometry width="50" height="50" relative="1" as="geometry">
            <mxPoint x="690" y="540" as="sourcePoint" />
            <mxPoint x="790" y="420" as="targetPoint" />
          </mxGeometry>
        </mxCell>
        <mxCell id="aLbbkwY_9u7VukXcp3Ax-65" value="" style="endArrow=classic;html=1;entryX=0;entryY=0.5;entryDx=0;entryDy=0;exitX=1;exitY=0.5;exitDx=0;exitDy=0;exitPerimeter=0;" edge="1" parent="1" target="aLbbkwY_9u7VukXcp3Ax-59">
          <mxGeometry width="50" height="50" relative="1" as="geometry">
            <mxPoint x="690" y="560" as="sourcePoint" />
            <mxPoint x="770" y="520" as="targetPoint" />
          </mxGeometry>
        </mxCell>
        <mxCell id="aLbbkwY_9u7VukXcp3Ax-66" value="" style="endArrow=classic;html=1;entryX=0;entryY=0.5;entryDx=0;entryDy=0;exitX=0;exitY=0;exitDx=100;exitDy=95.9921240919884;exitPerimeter=0;" edge="1" parent="1" target="aLbbkwY_9u7VukXcp3Ax-60">
          <mxGeometry width="50" height="50" relative="1" as="geometry">
            <mxPoint x="690" y="575.9921240919884" as="sourcePoint" />
            <mxPoint x="780" y="560" as="targetPoint" />
          </mxGeometry>
        </mxCell>
        <mxCell id="aLbbkwY_9u7VukXcp3Ax-67" value="" style="endArrow=classic;html=1;entryX=0;entryY=0.5;entryDx=0;entryDy=0;exitX=0;exitY=0;exitDx=100;exitDy=95.9921240919884;exitPerimeter=0;" edge="1" parent="1" target="aLbbkwY_9u7VukXcp3Ax-61">
          <mxGeometry width="50" height="50" relative="1" as="geometry">
            <mxPoint x="664" y="587.9921240919884" as="sourcePoint" />
            <mxPoint x="744" y="612" as="targetPoint" />
          </mxGeometry>
        </mxCell>
        <mxCell id="aLbbkwY_9u7VukXcp3Ax-69" value="Plural ;Mechanics" style="text;html=1;strokeColor=none;fillColor=none;align=center;verticalAlign=middle;whiteSpace=wrap;rounded=0;" vertex="1" parent="1">
          <mxGeometry x="620" y="610" width="40" height="20" as="geometry" />
        </mxCell>
        <mxCell id="aLbbkwY_9u7VukXcp3Ax-70" value="" style="endArrow=classic;html=1;entryX=0;entryY=0.5;entryDx=0;entryDy=0;entryPerimeter=0;" edge="1" parent="1" source="aLbbkwY_9u7VukXcp3Ax-1" target="aLbbkwY_9u7VukXcp3Ax-5">
          <mxGeometry width="50" height="50" relative="1" as="geometry">
            <mxPoint x="310" y="280" as="sourcePoint" />
            <mxPoint x="360" y="230" as="targetPoint" />
          </mxGeometry>
        </mxCell>
        <mxCell id="aLbbkwY_9u7VukXcp3Ax-71" value="" style="endArrow=classic;html=1;exitX=0.892;exitY=0.861;exitDx=0;exitDy=0;exitPerimeter=0;entryX=0;entryY=0.5;entryDx=0;entryDy=0;entryPerimeter=0;" edge="1" parent="1" source="aLbbkwY_9u7VukXcp3Ax-1" target="aLbbkwY_9u7VukXcp3Ax-53">
          <mxGeometry width="50" height="50" relative="1" as="geometry">
            <mxPoint x="170" y="490.00313725490213" as="sourcePoint" />
            <mxPoint x="360" y="542.1600000000001" as="targetPoint" />
          </mxGeometry>
        </mxCell>
        <mxCell id="aLbbkwY_9u7VukXcp3Ax-72" value="Game nechanics are the logic blocks applied to the&amp;nbsp; entitties in the data layer.&amp;nbsp;&lt;br&gt;If logic can be used with an entity type exposed in the data layer, then it should be created in this layer.&lt;br&gt;&lt;br&gt;A good example for a mechanic in the engine is &quot;gravity&quot;." style="rounded=0;whiteSpace=wrap;html=1;align=left;" vertex="1" parent="1">
          <mxGeometry x="930" y="300" width="350" height="120" as="geometry" />
        </mxCell>
        <mxCell id="aLbbkwY_9u7VukXcp3Ax-73" value="Factories create entitites of the types, specified in the data layer.&lt;br&gt;Factories can take a generic number of parameters. All&amp;nbsp; invoked factories look if the number of parameters provided are valid. If so, the factory will create an entity, of the specified data layer." style="rounded=0;whiteSpace=wrap;html=1;align=left;" vertex="1" parent="1">
          <mxGeometry x="920" y="930" width="350" height="120" as="geometry" />
        </mxCell>
        <mxCell id="aLbbkwY_9u7VukXcp3Ax-74" value="The data layer ony specifies the models used in the game server. For now, the &quot;default&quot; entitites are the ones provided here. There is also the possiblity of inserting new types of entities by either extending the this layer or using the dynamic part of the layer. The dynamic part of the layer can use any type provided. A good example for this are TagVariables, used by the language interpreter. If one defines variables in the language, there is a possiblity of accessing or manipulating its content through a dynamic data layer" style="rounded=0;whiteSpace=wrap;html=1;align=left;" vertex="1" parent="1">
          <mxGeometry x="930" y="-280" width="350" height="150" as="geometry" />
        </mxCell>
        <mxCell id="aLbbkwY_9u7VukXcp3Ax-76" value="" style="whiteSpace=wrap;html=1;shape=mxgraph.basic.isocube;isoAngle=15;" vertex="1" parent="1">
          <mxGeometry x="-550" y="1360" width="100" height="120" as="geometry" />
        </mxCell>
        <mxCell id="aLbbkwY_9u7VukXcp3Ax-77" value="LoginService" style="text;html=1;strokeColor=none;fillColor=none;align=center;verticalAlign=middle;whiteSpace=wrap;rounded=0;" vertex="1" parent="1">
          <mxGeometry x="-520" y="1480" width="40" height="20" as="geometry" />
        </mxCell>
        <mxCell id="aLbbkwY_9u7VukXcp3Ax-78" value="" style="whiteSpace=wrap;html=1;shape=mxgraph.basic.isocube;isoAngle=15;" vertex="1" parent="1">
          <mxGeometry x="-320" y="1360" width="100" height="120" as="geometry" />
        </mxCell>
        <mxCell id="aLbbkwY_9u7VukXcp3Ax-79" value="PlayerDialogService" style="text;html=1;strokeColor=none;fillColor=none;align=center;verticalAlign=middle;whiteSpace=wrap;rounded=0;" vertex="1" parent="1">
          <mxGeometry x="-290" y="1480" width="40" height="20" as="geometry" />
        </mxCell>
        <mxCell id="aLbbkwY_9u7VukXcp3Ax-80" value="" style="whiteSpace=wrap;html=1;shape=mxgraph.basic.isocube;isoAngle=15;" vertex="1" parent="1">
          <mxGeometry x="-60" y="1360" width="100" height="120" as="geometry" />
        </mxCell>
        <mxCell id="aLbbkwY_9u7VukXcp3Ax-81" value="EventDispatcher" style="text;html=1;strokeColor=none;fillColor=none;align=center;verticalAlign=middle;whiteSpace=wrap;rounded=0;" vertex="1" parent="1">
          <mxGeometry x="-30" y="1480" width="40" height="20" as="geometry" />
        </mxCell>
        <mxCell id="aLbbkwY_9u7VukXcp3Ax-82" value="" style="whiteSpace=wrap;html=1;shape=mxgraph.basic.isocube;isoAngle=15;" vertex="1" parent="1">
          <mxGeometry x="590" y="1400" width="100" height="120" as="geometry" />
        </mxCell>
        <mxCell id="aLbbkwY_9u7VukXcp3Ax-83" value="IODataLayer" style="text;html=1;strokeColor=none;fillColor=none;align=center;verticalAlign=middle;whiteSpace=wrap;rounded=0;" vertex="1" parent="1">
          <mxGeometry x="620" y="1520" width="40" height="20" as="geometry" />
        </mxCell>
        <mxCell id="aLbbkwY_9u7VukXcp3Ax-85" value="" style="endArrow=classic;html=1;entryX=0.5;entryY=0;entryDx=0;entryDy=0;entryPerimeter=0;exitX=0.234;exitY=0.916;exitDx=0;exitDy=0;exitPerimeter=0;" edge="1" parent="1" source="aLbbkwY_9u7VukXcp3Ax-1" target="aLbbkwY_9u7VukXcp3Ax-82">
          <mxGeometry width="50" height="50" relative="1" as="geometry">
            <mxPoint x="-230" y="350" as="sourcePoint" />
            <mxPoint x="-100" y="1080" as="targetPoint" />
          </mxGeometry>
        </mxCell>
        <mxCell id="aLbbkwY_9u7VukXcp3Ax-86" value="This is the API between the game server and the client. If the client sends data, it will be forwarded through this layer. This layer has the clients data. It is hold as a mutual object between game server and client. &lt;br&gt;The client can forward data only through commands. Commands are strings that can be interpreted by the game server." style="rounded=0;whiteSpace=wrap;html=1;align=left;" vertex="1" parent="1">
          <mxGeometry x="920" y="1400" width="350" height="120" as="geometry" />
        </mxCell>
      </root>
    </mxGraphModel>
  </diagram>
</mxfile>
